<svg xmlns="http://www.w3.org/2000/svg" xmlns:xlink="http://www.w3.org/1999/xlink" xmlns:xodm="http://www.corel.com/coreldraw/odm/2003" xml:space="preserve" width="135.466mm" height="101.6mm" version="1.1" style="shape-rendering:geometricPrecision; text-rendering:geometricPrecision; image-rendering:optimizeQuality; fill-rule:evenodd; clip-rule:evenodd" viewBox="0 0 195.38 146.54">
 <defs>
  <style type="text/css">
   <![CDATA[
    .fil0 {fill:#212529;fill-rule:nonzero}
   ]]>
  </style>
 </defs>
 <g id="Layer_x0020_1">
  <metadata id="CorelCorpID_0Corel-Layer"/>
  <g id="_1735475502800">
   <circle class="fil0" cx="44.78" cy="101.76" r="12.21"/>
   <path class="fil0" d="M154.68 0l-113.97 0c-22.47,0.02 -40.68,18.24 -40.7,40.7l0 65.13c0.02,22.47 18.23,40.68 40.7,40.71l113.97 0c22.47,-0.03 40.68,-18.24 40.7,-40.7l0 -65.13c-0.02,-22.47 -18.23,-40.68 -40.7,-40.7l-0 -0zm-113.97 16.28l113.97 0c13.49,0 24.42,10.94 24.42,24.42l-162.82 -0c0,-13.49 10.94,-24.42 24.42,-24.42l-0 -0zm113.97 113.97l-113.97 0c-13.49,-0 -24.42,-10.94 -24.42,-24.42l-0 -48.85 162.82 0 0 48.85c-0,13.49 -10.94,24.42 -24.42,24.42l0 0z"/>
  </g>
 </g>
</svg>